<svg xmlns="http://www.w3.org/2000/svg" version="1.1" xmlns:xlink="http://www.w3.org/1999/xlink" width="475.69442554204625" height="200" viewBox="-1.7599999904632568 9.119999885559082 127 47.60000228881836"><path d="M11.24 33.68L11.24 33.68Q13.08 35.08 16.68 35.08L16.68 35.08L16.84 35.08Q19.08 30.92 21.12 27.40L21.12 27.40Q15 31 11.24 33.68ZM34.84 14.76L34.84 14.76Q34.84 13.40 33 13.16L33 13.16Q29.52 17.20 25.32 23.80L25.32 23.80Q30 21 32.42 18.88Q34.84 16.76 34.84 14.76ZM15.70 19.54Q12.92 22.04 11.22 24.86Q9.52 27.68 9.52 29.72Q9.52 31.76 10.44 32.92L10.44 32.92Q14.20 30.28 22.08 25.72L22.08 25.72Q26.88 17.48 30.76 13.16L30.76 13.16Q26.56 13.44 22.52 15.24Q18.48 17.04 15.70 19.54ZM16.40 35.88L16.40 35.88L15.56 35.88Q12.04 35.88 9.88 34.64L9.88 34.64Q-0.36 42.20-0.36 49.48L-0.36 49.48Q-0.36 53.96 2.76 53.96L2.76 53.96Q4.24 53.96 5.76 52.44L5.76 52.44Q6.64 51.60 7.34 50.84Q8.04 50.08 9.06 48.52Q10.08 46.96 10.74 45.90Q11.40 44.84 12.60 42.74Q13.80 40.64 14.42 39.48Q15.04 38.32 16.40 35.88ZM35.80 14.68L35.80 14.68Q35.76 17.04 32.84 19.56Q29.92 22.08 24.24 25.52L24.24 25.52Q21.12 30.56 18.60 34.96L18.60 34.96Q22.48 34.36 25.16 32.12L25.16 32.12Q25.32 32 25.52 32Q25.72 32 25.72 32.22Q25.72 32.44 24.84 33.10Q23.96 33.76 22.10 34.56Q20.24 35.36 18.20 35.68L18.20 35.68Q11.84 46.48 9.44 49.52L9.44 49.52Q6.20 53.64 4.24 54.72L4.24 54.72Q3.04 55.36 1.92 55.36L1.92 55.36Q0.20 55.36-0.78 53.84Q-1.76 52.32-1.76 50.40L-1.76 50.40Q-1.76 42 9 33.96L9 33.96Q7.44 32.56 7.44 30.14Q7.44 27.72 9.30 24.74Q11.16 21.76 14.26 19.12Q17.36 16.48 21.94 14.60Q26.52 12.72 31.40 12.44L31.40 12.44Q33.28 10.48 34.68 9.44L34.68 9.44Q35.16 9.12 35.90 9.12Q36.64 9.12 36.64 9.52L36.64 9.52Q36.64 9.72 36.08 10.12Q35.52 10.52 35.24 10.76L35.24 10.76L33.60 12.48Q34.52 12.68 35.16 13.32Q35.80 13.96 35.80 14.68ZM33.84 33.68L33.84 33.68Q35.68 35.08 39.28 35.08L39.28 35.08L39.44 35.08Q41.68 30.92 43.72 27.40L43.72 27.40Q37.60 31 33.84 33.68ZM57.44 14.76L57.44 14.76Q57.44 13.40 55.60 13.16L55.60 13.16Q52.12 17.20 47.92 23.80L47.92 23.80Q52.60 21 55.02 18.88Q57.44 16.76 57.44 14.76ZM38.30 19.54Q35.52 22.04 33.82 24.86Q32.12 27.68 32.12 29.72Q32.12 31.76 33.04 32.92L33.04 32.92Q36.80 30.28 44.68 25.72L44.68 25.72Q49.48 17.48 53.36 13.16L53.36 13.16Q49.16 13.44 45.12 15.24Q41.08 17.04 38.30 19.54ZM39 35.88L39 35.88L38.16 35.88Q34.64 35.88 32.48 34.64L32.48 34.64Q22.24 42.20 22.24 49.48L22.24 49.48Q22.24 53.96 25.36 53.96L25.36 53.96Q26.84 53.96 28.36 52.44L28.36 52.44Q29.24 51.60 29.94 50.84Q30.64 50.08 31.66 48.52Q32.68 46.96 33.34 45.90Q34 44.84 35.20 42.74Q36.40 40.64 37.02 39.48Q37.64 38.32 39 35.88ZM58.40 14.68L58.40 14.68Q58.36 17.04 55.44 19.56Q52.52 22.08 46.84 25.52L46.84 25.52Q43.72 30.56 41.20 34.96L41.20 34.96Q45.08 34.36 47.76 32.12L47.76 32.12Q47.92 32 48.12 32Q48.32 32 48.32 32.22Q48.32 32.44 47.44 33.10Q46.56 33.76 44.70 34.56Q42.84 35.36 40.80 35.68L40.80 35.68Q34.44 46.48 32.04 49.52L32.04 49.52Q28.80 53.64 26.84 54.72L26.84 54.72Q25.64 55.36 24.52 55.36L24.52 55.36Q22.80 55.36 21.82 53.84Q20.84 52.32 20.84 50.40L20.84 50.40Q20.84 42 31.60 33.96L31.60 33.96Q30.04 32.56 30.04 30.14Q30.04 27.72 31.90 24.74Q33.76 21.76 36.86 19.12Q39.96 16.48 44.54 14.60Q49.12 12.72 54 12.44L54 12.44Q55.88 10.48 57.28 9.44L57.28 9.44Q57.76 9.12 58.50 9.12Q59.24 9.12 59.24 9.52L59.24 9.52Q59.24 9.72 58.68 10.12Q58.12 10.52 57.84 10.76L57.84 10.76L56.20 12.48Q57.12 12.68 57.76 13.32Q58.40 13.96 58.40 14.68ZM71.36 40.36L71.36 40.36Q70.88 40.36 70.88 39.80L70.88 39.80Q70.88 38.56 75.10 29.90Q79.32 21.24 79.32 19.88L79.32 19.88Q79.32 19.32 78.72 19.32L78.72 19.32Q77 19.32 71.08 24.56L71.08 24.56Q68.36 30.72 63.60 36.72Q58.84 42.72 56.36 42.72L56.36 42.72Q55.52 42.72 55.52 41.72L55.52 41.72Q56.20 38.80 59.96 34.40Q63.72 30 68.76 25.64L68.76 25.64Q70.84 20.88 70.84 18.20L70.84 18.20Q70.84 11.24 61.04 11.24L61.04 11.24Q58.40 11.24 56.44 11.68L56.44 11.68Q52.68 12.44 52.36 14.36L52.36 14.36Q52.44 16.60 56.80 17.60L56.80 17.60Q58.64 18 60.48 18.44Q62.32 18.88 63.60 19.80Q64.88 20.72 64.88 22.16L64.88 22.16Q64.88 22.48 64.64 23.02Q64.40 23.56 64.06 23.56Q63.72 23.56 63.72 23.16L63.72 23.16Q63.72 22.92 63.90 22.64Q64.08 22.36 64.08 22.20L64.08 22.20Q64.08 21.08 59.36 19.92L59.36 19.92Q57.36 19.44 55.38 18.82Q53.40 18.20 52.02 17.10Q50.64 16 50.64 14.68Q50.64 13.36 51.94 12.50Q53.24 11.64 55.20 11.24L55.20 11.24Q59 10.48 61.92 10.48L61.92 10.48Q66.88 10.48 69.84 12.48Q72.80 14.48 72.80 18.40L72.80 18.40Q72.80 20.20 71.64 23.24L71.64 23.24Q78.08 18.08 79.88 18.08L79.88 18.08Q80.40 18.08 80.78 18.48Q81.16 18.88 81.16 19.46Q81.16 20.04 80.40 22.08Q79.64 24.12 76.94 29.92Q74.24 35.72 74.24 35.80Q74.24 35.88 74.36 35.96L74.36 35.96Q74.60 35.96 75.12 35.24L75.12 35.24Q79 29.84 86.76 22.70Q94.52 15.56 100.20 13.08L100.20 13.08Q101.36 12.60 101.96 12.60Q102.56 12.60 102.56 13.02Q102.56 13.44 102.04 13.74Q101.52 14.04 100.26 14.90Q99 15.76 98.60 16.12Q98.20 16.48 98.04 16.48Q97.88 16.48 97.84 16.24Q97.80 16 97.66 16Q97.52 16 97.20 16.12L97.20 16.12Q92.36 18.40 84.88 25.60L84.88 25.60Q77 33.24 73.76 38L73.76 38Q72.60 39.68 72.10 40.02Q71.60 40.36 71.36 40.36ZM57.44 41.28L57.44 41.28Q58.92 41.28 62.14 36.98Q65.36 32.68 67.92 27.52L67.92 27.52Q63.48 31.80 60.34 35.64Q57.20 39.48 57.20 41.04L57.20 41.04Q57.20 41.28 57.44 41.28ZM89.32 35.20L89.32 35.20Q89.08 35.20 89.08 35.02Q89.08 34.84 89.36 34.60L89.36 34.60Q90.68 33.52 90.68 32.64L90.68 32.64Q90.68 32.08 89.68 32L89.68 32Q87.88 32.04 85.38 34.60Q82.88 37.16 82.88 38.44L82.88 38.44Q82.88 38.88 83.38 38.88Q83.88 38.88 84.72 38.20L84.72 38.20Q85.48 37.72 87.56 35.80L87.56 35.80Q88.04 35.32 88.48 35.32L88.48 35.32Q89.04 35.32 89.04 35.84L89.04 35.84Q89.04 36.04 88.92 36.16Q88.80 36.28 88.48 36.66Q88.16 37.04 87.92 37.36L87.92 37.36Q87.20 38.40 87.20 38.72L87.20 38.72Q87.20 39.52 87.84 39.52L87.84 39.52Q88.68 39.52 91 37.98Q93.32 36.44 95.24 34.88L95.24 34.88L97.16 33.36Q97.44 33.16 97.68 33.16Q97.92 33.16 97.92 33.44L97.92 33.44L97.92 33.52Q94.84 36.12 91.42 38.40Q88 40.68 86.92 40.68L86.92 40.68Q85.64 40.68 85.64 39.32L85.64 39.32Q85.64 39 85.76 38.72Q85.88 38.44 85.88 38.32Q85.88 38.20 85.80 38.16L85.80 38.16Q85.68 38.16 84.26 39.24Q82.84 40.32 81.78 40.32Q80.72 40.32 80.72 39.20Q80.72 38.08 82.22 36.18Q83.72 34.28 86.24 32.72Q88.76 31.16 91.16 31.16L91.16 31.16Q91.72 31.16 92.10 31.44Q92.48 31.72 92.48 32.30Q92.48 32.88 91.32 34.04Q90.16 35.20 89.32 35.20ZM113.40 33.36L113.40 33.48Q104.96 40.52 102.96 40.52L102.96 40.52Q101.80 40.52 101.80 39.56Q101.80 38.60 102.66 37.28Q103.52 35.96 104.38 34.94Q105.24 33.92 105.24 33.72Q105.24 33.52 105.12 33.52L105.12 33.52Q101.40 36 100.70 36.56Q100 37.12 98.42 38.40Q96.84 39.68 96.36 40Q95.88 40.32 95.32 40.32L95.32 40.32Q94.76 40.32 94.76 39.84L94.76 39.84Q94.76 39.28 97 36.32L97 36.32Q99.16 33.36 99.16 33L99.16 33Q99.16 32.92 99.02 32.92Q98.88 32.92 95.56 35.36L95.56 35.36L95.40 34.76Q98.24 32.48 99.24 31.84Q100.24 31.20 100.86 31.20Q101.48 31.20 101.48 31.80L101.48 31.80Q101.48 32.20 99.22 35.06Q96.96 37.92 96.96 38.14Q96.96 38.36 97.10 38.36Q97.24 38.36 101.66 35.14Q106.08 31.92 107.04 31.92L107.04 31.92Q107.32 31.92 107.58 32.14Q107.84 32.36 107.84 32.56L107.84 32.56Q107.84 33.04 105.72 35.74Q103.60 38.44 103.60 38.80Q103.60 39.16 104.10 39.16Q104.60 39.16 106.24 38.08L106.24 38.08Q109.24 36.12 111.76 34.04L111.76 34.04L112.64 33.32Q112.92 33.12 113.16 33.12Q113.40 33.12 113.40 33.36L113.40 33.36ZM123.56 34.16L124.48 33.36Q124.76 33.16 125.00 33.16Q125.24 33.16 125.24 33.44L125.24 33.44L125.24 33.52Q121.36 36.72 119.16 38.16L119.16 38.16L111.16 43.36L108.68 46.84Q102.92 54.72 102.92 55.32L102.92 55.32Q102.28 56.72 101.68 56.72L101.68 56.72Q100.92 56.72 100.92 55.72Q100.92 54.72 101.90 53.04Q102.88 51.36 103.84 50.32L103.84 50.32L107.64 46.32Q108.12 45.56 109.60 43.52Q111.08 41.48 111.56 40.80L111.56 40.80L113.28 38.24L113.36 38.08Q113.36 38 113.28 38L113.28 38Q110.92 39.96 109.36 39.96Q107.80 39.96 107.80 39.06Q107.80 38.16 109.00 36.68Q110.20 35.20 111.90 33.80Q113.60 32.40 115.66 31.38Q117.72 30.36 119.30 30.36Q120.88 30.36 120.88 31.48L120.88 31.48Q120.88 32.28 119.38 33.40Q117.88 34.52 117.54 34.52Q117.20 34.52 117.20 34.36L117.20 34.36Q117.20 34.12 117.52 33.92L117.52 33.92Q118.88 32.96 118.88 32.10Q118.88 31.24 118.16 31.24L118.16 31.24Q116.40 31.24 113.26 34.22Q110.12 37.20 110.12 38.44L110.12 38.44Q110.12 38.80 110.70 38.80Q111.28 38.80 112.68 37.86Q114.08 36.92 114.80 36.04L114.80 36.04L115.88 34.68Q116.08 34.40 116.40 34.40Q116.72 34.40 116.96 34.60Q117.20 34.80 117.20 35L117.20 35L112.36 41.72L118.28 38Q120.92 36.40 123.56 34.16L123.56 34.16Z" fill="black"></path></svg>